PathFileType	4	(X/Y/Z)	/Users/itak/Documents/Research/Walk-IL/dataset/trc/00495_00183.trc
DataRate	CameraRate	NumFrames	NumMarkers	Units	OrigDataRate	OrigDataStartFrame	OrigNumFrames
100.000000	100.000000	4	53	mm	100.000000	178	713
Frame#	Time	RPSI			LPSI			L3			STRN			T10			C7			CLAV			RBAK			LBAK			LSHO			LUPA			LAEL			LAOL			LWTS			LWPS			LFRA			LIFD			LHPS			LHTS			RSHO			RUPA			RAEL			RAOL			RWTS			RWPS			RFRA			RIFD			RHTS			RHPS			RBHD			LFHD			RFHD			LBHD			LHIP			RHIP			RASI			LASI			LKNE			LTHI			LANK			LTIP			LTOE			LMT1			LMT5			LHEE			RKNE			RANK			RTIP			RTOE			RMT1			RMT5			RHEE			RTHI			
		X1	Y1	Z1	X2	Y2	Z2	X3	Y3	Z3	X4	Y4	Z4	X5	Y5	Z5	X6	Y6	Z6	X7	Y7	Z7	X8	Y8	Z8	X9	Y9	Z9	X10	Y10	Z10	X11	Y11	Z11	X12	Y12	Z12	X13	Y13	Z13	X14	Y14	Z14	X15	Y15	Z15	X16	Y16	Z16	X17	Y17	Z17	X18	Y18	Z18	X19	Y19	Z19	X20	Y20	Z20	X21	Y21	Z21	X22	Y22	Z22	X23	Y23	Z23	X24	Y24	Z24	X25	Y25	Z25	X26	Y26	Z26	X27	Y27	Z27	X28	Y28	Z28	X29	Y29	Z29	X30	Y30	Z30	X31	Y31	Z31	X32	Y32	Z32	X33	Y33	Z33	X34	Y34	Z34	X35	Y35	Z35	X36	Y36	Z36	X37	Y37	Z37	X38	Y38	Z38	X39	Y39	Z39	X40	Y40	Z40	X41	Y41	Z41	X42	Y42	Z42	X43	Y43	Z43	X44	Y44	Z44	X45	Y45	Z45	X46	Y46	Z46	X47	Y47	Z47	X48	Y48	Z48	X49	Y49	Z49	X50	Y50	Z50	X51	Y51	Z51	X52	Y52	Z52	X53	Y53	Z53	

179	1.78	-1181.457641601562	975.5776977539062	-440.5734252929688	-1122.279541015625	973.0940551757812	-548.9854736328125	-1155.654907226562	1046.027709960938	-497.3857421875	-952.1912841796875	1196.442993164062	-408.3912963867188	-1168.069213867188	1149.931640625	-499.3336486816406	-1116.479248046875	1377.361206054688	-473.3697814941406	-981.6619873046875	1293.948364257812	-418.5391845703125	-1203.08642578125	1259.203247070312	-418.8068237304688	-1111.336181640625	1326.971069335938	-565.7001953125	-994.1080932617188	1367.807250976562	-598.16455078125	-991.3386840820312	1239.537963867188	-658.6445922851562	-988.0960693359375	1030.019165039062	-683.39013671875	-1083.386352539062	1028.978393554688	-651.2896728515625	-934.7557983398438	836.285400390625	-621.0419921875	-991.3963623046875	815.8279418945312	-692.4887084960938	-971.514404296875	954.5830078125	-680.438232421875	-950.1529541015625	679.0536499023438	-639.0875854492188	-975.26220703125	759.4692993164062	-689.4129028320312	-926.950927734375	757.701904296875	-650.0074462890625	-1126.303344726562	1368.330688476562	-316.2134094238281	-1169.432373046875	1301.991333007812	-273.0590209960938	-1205.208129882812	1035.53173828125	-241.5560302734375	-1241.418701171875	1024.006103515625	-296.2381286621094	-1104.366455078125	832.8322143554688	-240.2591857910156	-1192.273071289062	812.080322265625	-225.3363342285156	-1208.410278320312	980.0662231445312	-235.3900146484375	-1110.305419921875	674.2095336914062	-236.3393096923828	-1101.50634765625	741.7313232421875	-211.8145294189453	-1171.933349609375	739.0540161132812	-214.8740997314453	-1116.091064453125	1520.190795898438	-378.5942077636719	-936.7216186523438	1588.502075195312	-438.7798156738281	-1000.572570800781	1577.146240234375	-328.6830139160156	-1049.3837890625	1530.050170898438	-523.2276000976562	-965.3308715820312	896.3118896484375	-612.6820678710938	-1146.491943359375	873.500732421875	-282.2317199707031	-1030.973876953125	913.8512573242188	-292.5090942382812	-918.5589599609375	927.058349609375	-505.8270263671875	-982.4150390625	470.8417053222656	-552.6582641601562	-954.7340087890625	627.5001831054688	-576.738037109375	-1085.511596679688	46.90505599975586	-570.8831176757812	-1011.666320800781	319.2974548339844	-562.45947265625	-950.2174072265625	40.34181976318359	-415.7176208496094	-1031.870361328125	44.09205627441406	-428.3987731933594	-986.123779296875	43.47405242919922	-520.3599243164062	-1160.291748046875	45.96863174438477	-542.3132934570312	-1151.334716796875	486.1959533691406	-296.5294799804688	-1223.74072265625	50.87548065185547	-335.6471252441406	-1152.973022460938	341.2904663085938	-306.6316528320312	-1025.260375976562	45.83612823486328	-287.9197082519531	-1068.461181640625	50.03705215454102	-351.6798706054688	-1126.297973632812	47.58006286621094	-274.8484802246094	-1251.999633789062	41.67606735229492	-401.1435546875	nan	nan	nan	
180	1.79	-1180.714111328125	975.6197509765625	-442.5036010742188	-1121.571655273438	973.0603637695312	-550.8583374023438	-1154.27294921875	1046.3642578125	-499.2400512695312	-950.8650512695312	1196.367797851562	-409.7684020996094	-1166.393432617188	1150.178100585938	-500.7540893554688	-1114.8525390625	1377.5517578125	-474.6960754394531	-980.2567749023438	1293.881958007812	-419.7673034667969	-1201.75146484375	1259.45556640625	-420.4739990234375	-1109.580688476562	1327.277099609375	-567.150390625	-992.226806640625	1368.047485351562	-599.2906494140625	-989.329345703125	1239.8046875	-659.8516235351562	-986.216796875	1030.302124023438	-684.6397094726562	-1081.586791992188	1029.280151367188	-652.7824096679688	-932.8314208984375	836.7364501953125	-621.8502197265625	-989.5379638671875	815.9413452148438	-693.2300415039062	-969.6353149414062	954.8450317382812	-681.5327758789062	-948.193359375	679.3535766601562	-639.418212890625	-973.3612670898438	759.642578125	-689.903076171875	-924.9056396484375	758.1774291992188	-650.4542846679688	-1124.952026367188	1368.26123046875	-317.5860595703125	-1168.2509765625	1301.939819335938	-274.610595703125	-1204.653076171875	1035.581909179688	-243.3003082275391	-1240.629638671875	1024.103637695312	-298.1432800292969	-1104.027954101562	832.9024047851562	-241.2744445800781	-1192.038696289062	812.1654663085938	-226.8941955566406	-1207.95947265625	980.14208984375	-237.1159210205078	-1109.953002929688	674.289306640625	-237.3228759765625	-1101.348022460938	741.8196411132812	-212.7553253173828	-1171.783813476562	739.1101684570312	-216.2291107177734	-1114.301635742188	1520.207763671875	-379.3494567871094	-934.59716796875	1588.296264648438	-438.84765625	-998.740478515625	1576.5986328125	-328.9363708496094	-1047.253051757812	1530.48828125	-523.7943115234375	-963.9647216796875	895.7921752929688	-613.6365966796875	-1146.418823242188	873.9373779296875	-283.8260803222656	-1030.764770507812	914.5368041992188	-293.828369140625	-917.5206298828125	926.9439697265625	-506.8050231933594	-980.7120971679688	470.5343933105469	-552.3305053710938	-953.1148071289062	627.1393432617188	-576.7399291992188	-1085.445922851562	46.83012390136719	-571.0164794921875	-1010.304077148438	318.9168090820312	-562.0609741210938	-950.2459716796875	40.27012634277344	-415.6630859375	-1031.875366210938	44.06521987915039	-428.3915100097656	-986.1264038085938	43.438720703125	-520.3735961914062	-1159.95849609375	45.87553024291992	-542.3538818359375	-1148.501098632812	486.5340881347656	-297.0519104003906	-1223.528198242188	51.33636474609375	-335.6119995117188	-1150.228393554688	341.2772216796875	-306.7514038085938	-1025.21240234375	45.82083129882812	-287.9525146484375	-1068.343505859375	50.00641250610352	-351.7259826660156	-1126.190307617188	47.66314315795898	-274.8381652832031	-1251.938110351562	42.38998794555664	-401.0256652832031	nan	nan	nan	
181	1.8	-1179.97119140625	975.7008666992188	-444.4707641601562	-1120.85302734375	973.0852661132812	-552.7625122070312	-1152.935668945312	1046.670532226562	-501.1097717285156	-949.5562133789062	1196.309936523438	-411.1113891601562	-1164.793701171875	1150.460693359375	-502.2563171386719	-1113.216186523438	1377.745361328125	-476.0370788574219	-978.847900390625	1293.838623046875	-420.9706726074219	-1200.41064453125	1259.7119140625	-422.1752624511719	-1107.78662109375	1327.583984375	-568.6124877929688	-990.3155517578125	1368.303955078125	-600.3983154296875	-987.2980346679688	1240.098510742188	-661.0521850585938	-984.3408813476562	1030.609985351562	-685.9027099609375	-1079.794311523438	1029.609619140625	-654.2611083984375	-930.79833984375	837.26904296875	-622.5786743164062	-987.5994262695312	816.051513671875	-693.892333984375	-967.7529907226562	955.1407470703125	-682.6203002929688	-946.0582275390625	679.7430419921875	-639.54296875	-971.3750610351562	759.8333740234375	-690.2631225585938	-922.6526489257812	758.7926025390625	-650.7210083007812	-1123.635375976562	1368.201416015625	-318.9755554199219	-1167.107421875	1301.900268554688	-276.1927490234375	-1204.118896484375	1035.637084960938	-245.1039886474609	-1239.827392578125	1024.204345703125	-300.1267395019531	-1103.750610351562	832.9801635742188	-242.2389068603516	-1191.870239257812	812.259033203125	-228.4680480957031	-1207.540893554688	980.2295532226562	-238.8906402587891	-1109.662109375	674.3793334960938	-238.2428283691406	-1101.277099609375	741.9273071289062	-213.6295928955078	-1171.703735351562	739.1819458007812	-217.5841827392578	-1112.52978515625	1520.244873046875	-380.126220703125	-932.4865112304688	1588.09716796875	-438.9502563476562	-996.9049072265625	1576.080322265625	-329.2161254882812	-1045.133666992188	1530.932739257812	-524.3751220703125	-962.5082397460938	895.2767944335938	-614.4909057617188	-1146.472045898438	874.4174194335938	-285.4736022949219	-1030.631713867188	915.2403564453125	-295.1111145019531	-916.4788208007812	926.823974609375	-507.6929321289062	-979.0885620117188	470.2226257324219	-551.9964599609375	-951.5094604492188	626.7621459960938	-576.6826171875	-1085.376586914062	46.76702499389648	-571.1242065429688	-1009.028930664062	318.5518798828125	-561.69091796875	-950.2779541015625	40.19640350341797	-415.6058959960938	-1031.889770507812	44.03261184692383	-428.3746643066406	-986.1312255859375	43.40938568115234	-520.389892578125	-1159.611938476562	45.79602813720703	-542.3755493164062	-1145.439331054688	486.8865661621094	-297.5150756835938	-1223.278564453125	51.92383193969727	-335.5556640625	-1147.270629882812	341.2825012207031	-306.7643127441406	-1025.157470703125	45.80626678466797	-287.9787902832031	-1068.219604492188	49.98622894287109	-351.765380859375	-1126.066284179688	47.77944564819336	-274.8051452636719	-1251.85302734375	43.28030776977539	-400.8912048339844	nan	nan	nan	
182	1.81	-1179.22900390625	975.8096313476562	-446.469482421875	-1120.124633789062	973.1621704101562	-554.693359375	-1151.6357421875	1046.953979492188	-502.9896240234375	-948.2638549804688	1196.269653320312	-412.4029541015625	-1163.269653320312	1150.779541015625	-503.8539123535156	-1111.56689453125	1377.943969726562	-477.3856506347656	-977.4384155273438	1293.817016601562	-422.1396789550781	-1199.065307617188	1259.971801757812	-423.9072875976562	-1105.94775390625	1327.891479492188	-570.0730590820312	-988.36865234375	1368.573364257812	-601.4762573242188	-985.24462890625	1240.41455078125	-662.2364501953125	-982.4630737304688	1030.935913085938	-687.1694946289062	-1078.004516601562	1029.962890625	-655.729736328125	-928.6868896484375	837.8673706054688	-623.2138061523438	-985.5569458007812	816.1596069335938	-694.4703369140625	-965.8656616210938	955.4671020507812	-683.6884765625	-943.7789306640625	680.2117919921875	-639.4702758789062	-969.2799682617188	760.0416870117188	-690.4971313476562	-920.179443359375	759.5365600585938	-650.7862548828125	-1122.356811523438	1368.153076171875	-320.3750610351562	-1166.006469726562	1301.873291015625	-277.8005065917969	-1203.610473632812	1035.702392578125	-246.9606323242188	-1239.022583007812	1024.308227539062	-302.1731262207031	-1103.5380859375	833.0737915039062	-243.1476898193359	-1191.765502929688	812.3633422851562	-230.0470275878906	-1207.15966796875	980.3310546875	-240.7063751220703	-1109.431762695312	674.479736328125	-239.0980529785156	-1101.295043945312	742.0578002929688	-214.4334869384766	-1171.682373046875	739.2738647460938	-218.9435424804688	-1110.776489257812	1520.300537109375	-380.9276428222656	-930.3932495117188	1587.906005859375	-439.0839233398438	-995.0680541992188	1575.597290039062	-329.5186462402344	-1043.02734375	1531.381958007812	-524.9677124023438	-960.9696044921875	894.7717895507812	-615.2482299804688	-1146.6005859375	874.9249267578125	-287.1442260742188	-1030.570922851562	915.9594116210938	-296.3511352539062	-915.4420166015625	926.7032470703125	-508.4845581054688	-977.5823364257812	469.9172668457031	-551.6583251953125	-949.941650390625	626.3743896484375	-576.5686645507812	-1085.310546875	46.71488189697266	-571.2056274414062	-1007.862426757812	318.2083740234375	-561.3604736328125	-950.3131103515625	40.12132263183594	-415.5461730957031	-1031.915649414062	43.99267578125	-428.3470458984375	-986.1392822265625	43.38581848144531	-520.4099731445312	-1159.273315429688	45.72910308837891	-542.3832397460938	-1142.151000976562	487.2583312988281	-297.9279174804688	-1222.990478515625	52.65972137451172	-335.4784851074219	-1144.100708007812	341.3189697265625	-306.6686706542969	-1025.091674804688	45.79199600219727	-287.9959411621094	-1068.087768554688	49.97776794433594	-351.7973327636719	-1125.924926757812	47.94160079956055	-274.744384765625	-1251.737548828125	44.36968994140625	-400.7426147460938	nan	nan	nan	
